<?xml version="1.0" encoding="iso-8859-1"?>
<!-- Generator: Adobe Illustrator 19.0.0, SVG Export Plug-In . SVG Version: 6.00 Build 0)  -->
<svg version="1.1" id="Capa_1" xmlns="http://www.w3.org/2000/svg" xmlns:xlink="http://www.w3.org/1999/xlink" x="0px" y="0px"
	 viewBox="0 0 512 512" style="enable-background:new 0 0 512 512;" xml:space="preserve">
<g>
	<g>
		<path d="M265.37,219.513c-2.739,2.191-6.055,3.287-9.37,3.287s-6.631-1.096-9.37-3.287L0,22.209V400.6c0,8.284,6.716,15,15,15
			h81.4V497c0,6.066,3.654,11.537,9.26,13.858c1.855,0.769,3.805,1.142,5.737,1.142c3.903,0,7.74-1.523,10.609-4.394l92.007-92.007
			H497c8.284,0,15-6.716,15-15V22.209L265.37,219.513z"/>
	</g>
</g>
<g>
	<g>
		<polygon points="20.262,0 256,188.591 491.739,0 		"/>
	</g>
</g>
<g>
</g>
<g>
</g>
<g>
</g>
<g>
</g>
<g>
</g>
<g>
</g>
<g>
</g>
<g>
</g>
<g>
</g>
<g>
</g>
<g>
</g>
<g>
</g>
<g>
</g>
<g>
</g>
<g>
</g>
</svg>
